<?xml version="1.0" encoding="iso-8859-1"?>
<!-- Generator: Adobe Illustrator 19.0.0, SVG Export Plug-In . SVG Version: 6.00 Build 0)  -->
<svg version="1.1" id="Capa_1" xmlns="http://www.w3.org/2000/svg" xmlns:xlink="http://www.w3.org/1999/xlink" x="0px" y="0px"
	 viewBox="0 0 415.334 415.334" style="enable-background:new 0 0 415.334 415.334;" xml:space="preserve">
<path style="fill:#FDC75B;" d="M401.4,64.616c9.2,28,2.6,59.5-19.2,81.8c-19.7,19.7-47.2,26.8-72.8,21.6
	c-14.8-3.1-28.9-10.2-40.4-21.6c-11.6-11.4-18.8-25.5-21.8-40.4c-5.2-25.4,2.2-53,21.8-72.8c21.9-21.9,53.8-28.4,81.3-19.2
	l-40.6,38.5l8.3,44.8l45.2,8.7L401.4,64.616z"/>
<path style="fill:#ED664C;" d="M309.4,167.916l-1,4.8l-175.3,175.3c-0.2,14.8-7.4,27-18,37.7c-1.2,1.6-2.9,2.8-4.3,4.2
	c-10.9,10.9-24.6,15.3-38.4,15.3c-15.5,0-31.1-5.6-43.8-18.4c-11.4-11.3-18.4-26.8-18.4-43.8s5.4-31.4,18.2-44.1
	c11.3-11.4,25.4-17.9,40.4-18.3l173.6-173.6l4.6-1c3,14.8,10.2,29,21.8,40.4C280.5,157.716,294.6,164.916,309.4,167.916z
	 M84.9,356.216c7.4-7.4,7.4-19.2,0-26.6c-7.4-7.4-19.2-7.4-26.7,0c-3.9,3.9-5.6,8.3-5.6,13.5s2.2,10,5.6,13.5
	c4,3.9,8.8,5.7,13.6,5.7C76.6,362.316,81.4,360.616,84.9,356.216z"/>
<path d="M403.5,54.816c-3.5-0.8-7.1,0.4-9.5,3l-34.4,37.3l-33.1-6.3l-6.1-32.8l36.6-34.8c2.5-2.4,3.6-6,2.9-9.4s-3.3-6.2-6.6-7.3
	c-31.8-10.6-67.8-2.1-91.6,21.7c-19.3,19.6-28.7,46.5-25.8,73.3c-0.2,0.2-0.4,0.3-0.6,0.5l-171,171c-15.9,1.4-31.1,8.8-43.2,20.9
	c-14.2,14.2-21.1,30.9-21.1,51.2c0,19.1,7.6,37.2,21.3,50.9c13.9,13.9,31.5,21.3,50.9,21.3c17.8,0,33.6-6.3,45.5-18.2
	c0.4-0.4,0.8-0.7,1.1-1c1-0.9,2.3-2.1,3.5-3.5c12.4-12.6,19.1-25.7,20.4-40l172.5-172.5c0.2-0.2,0.5-0.5,0.7-0.7
	c3.2,0.3,6.5,0.5,9.7,0.5c23.7,0,46.5-9.2,63.6-26.3c23.9-24.4,32.2-59.6,21.6-91.9C409.8,58.116,407,55.516,403.5,54.816z
	 M126.1,340.916c-1.8,1.8-2.9,4.3-2.9,6.9c-0.2,10.8-5,20.6-15.1,30.8c-0.3,0.3-0.6,0.6-0.8,0.9s-0.9,0.9-1.5,1.4s-1.3,1.1-2,1.9
	c-10.2,10.2-22.7,12.4-31.4,12.4c-13.9,0-26.6-5.3-36.7-15.4c-10-9.9-15.5-23-15.5-36.7c0-14.9,4.8-26.7,15.2-37.1
	c9.7-9.7,21.3-15,33.7-15.3c2.6-0.1,5-1.1,6.8-2.9l165.5-165.5c4.5,11.7,11.4,22.4,20.5,31.3c9,8.9,19.7,15.7,31.4,20.2
	L126.1,340.916z M375.1,139.316c-16.6,16.6-40.4,23.6-63.7,18.9c-13.4-2.8-25.7-9.3-35.4-18.9c-9.7-9.6-16.3-21.8-19-35.2l0,0
	c-4.7-23,2.5-46.9,19.1-63.7c13.2-13.2,31.2-20.3,49.4-20.3c1.3,0,2.6,0,4,0.1l-26.7,25c-2.4,2.3-3.6,5.7-2.9,9.1l8.3,44.8
	c0.7,4.1,3.9,7.2,7.9,8l45.2,8.7c3.4,0.7,6.9-0.5,9.2-3l24.7-26.9C396.4,105.416,389.3,124.816,375.1,139.316z"/>
<path d="M71.5,314.016c-7.7,0-14.9,3-20.4,8.5c-5.7,5.7-8.6,12.6-8.6,20.6c0,7.7,3,15,8.5,20.6l0.1,0.1c5.6,5.5,12.9,8.6,20.6,8.6
	c8.2,0,15.5-3.4,20.6-9.5c5.2-5.4,8.1-12.5,8.1-20c0-7.7-3-14.9-8.5-20.4C86.5,317.016,79.2,314.016,71.5,314.016z M77.8,349.116
	c-0.3,0.3-0.6,0.6-0.8,0.9c-0.8,1-2.2,2.3-5.2,2.3c-2.5,0-4.7-0.9-6.5-2.8c-1.7-1.8-2.7-4.1-2.7-6.5c0-2.7,0.7-4.5,2.7-6.5
	c1.7-1.7,3.9-2.7,6.3-2.7s4.6,0.9,6.3,2.7c1.7,1.7,2.6,3.9,2.6,6.2S79.5,347.416,77.8,349.116z"/>
<g>
</g>
<g>
</g>
<g>
</g>
<g>
</g>
<g>
</g>
<g>
</g>
<g>
</g>
<g>
</g>
<g>
</g>
<g>
</g>
<g>
</g>
<g>
</g>
<g>
</g>
<g>
</g>
<g>
</g>
</svg>
